o Extruded.001
v -2.7369115352630615 -0.4018062353134155 -1.802051067352295
v -2.7366254329681396 -0.6178253889083862 -1.802051067352295
v -2.7366254329681396 -0.6178253889083862 -1.747863531112671
v -2.7369115352630615 -0.4018062353134155 -1.727051019668579
v -2.332569122314453 -0.4018062353134155 -1.727051019668579
v -2.332569122314453 -0.4018062353134155 -1.802051067352295
v -2.332569122314453 -0.6178253889083862 -1.747863531112671
v -2.332569122314453 -0.6178253889083862 -1.802051067352295
vn -0.9999991059303284 -0.0013240090338513255 8.819671626666758e-19
vn -0.9999991059303284 -0.0013240090338513255 8.819671626666758e-19
vn -0.9999991059303284 -0.0013240090338513255 8.819671626666758e-19
vn -0.9999991059303284 -0.0013240090338513255 8.819671626666758e-19
vn -9.992007221626409e-16 1 -6.661338147750939e-16
vn -9.992007221626409e-16 1 -6.661338147750939e-16
vn -9.992007221626409e-16 1 -6.661338147750939e-16
vn -9.992007221626409e-16 1 -6.661338147750939e-16
vn 1 9.992007221626409e-16 -6.656013887802287e-31
vn 1 9.992007221626409e-16 -6.656013887802287e-31
vn 1 9.992007221626409e-16 -6.656013887802287e-31
vn 1 9.992007221626409e-16 -6.656013887802287e-31
vn 9.992007221626409e-16 -1 -2.2313492691056072e-15
vn 9.992007221626409e-16 -1 -2.2313492691056072e-15
vn 9.992007221626409e-16 -1 -2.2313492691056072e-15
vn 9.992007221626409e-16 -1 -2.2313492691056072e-15
vn 9.582473806120549e-17 -0.09590138494968414 0.9953908324241638
vn 9.582473806120549e-17 -0.09590138494968414 0.9953908324241638
vn 9.582473806120549e-17 -0.09590138494968414 0.9953908324241638
vn 9.582473806120549e-17 -0.09590138494968414 0.9953908324241638
vn 0 -6.661338147750939e-16 -1
vn 0 -6.661338147750939e-16 -1
vn 0 -6.661338147750939e-16 -1
vn 0 -6.661338147750939e-16 -1
f 1//1 2//2 3//3
f 3//3 4//4 1//1
f 5//5 6//6 1//7
f 1//7 4//8 5//5
f 6//9 5//10 7//11
f 7//11 8//12 6//9
f 3//13 2//14 8//15
f 8//15 7//16 3//13
f 5//17 4//18 3//19
f 3//19 7//20 5//17
f 6//21 8//22 2//23
f 2//23 1//24 6//21
