o Extruded.001
v -1.0002130270004272 1.2222977876663208 0.09077026695013046
v -1.0002130270004272 1.2222977876663208 0
v -1.0002130270004272 1.1612268686294556 0
v -1.0002130270004272 1.1612268686294556 0.09077026695013046
v -0.9709334373474121 1.2220827341079712 0.09077026695013046
v -0.9709334373474121 1.2220827341079712 0
v -0.9709334373474121 1.1612268686294556 0.09077026695013046
v -0.9709334373474121 1.1612268686294556 0
vn -1 0 0
vn -1 0 0
vn -1 0 0
vn -1 0 0
vn 0.007344361860305071 0.9999730587005615 0
vn 0.007344361860305071 0.9999730587005615 0
vn 0.007344361860305071 0.9999730587005615 0
vn 0.007344361860305071 0.9999730587005615 0
vn 1 0 0
vn 1 0 0
vn 1 0 0
vn 1 0 0
vn 0 -1 0
vn 0 -1 0
vn 0 -1 0
vn 0 -1 0
vn 0 0 1
vn 0 0 1
vn 0 0 1
vn 0 0 1
vn 0 0 -1
vn 0 0 -1
vn 0 0 -1
vn 0 0 -1
f 1//1 2//2 3//3
f 3//3 4//4 1//1
f 5//5 6//6 2//7
f 2//7 1//8 5//5
f 7//9 8//10 6//11
f 6//11 5//12 7//9
f 4//13 3//14 8//15
f 8//15 7//16 4//13
f 4//17 7//18 5//19
f 5//19 1//20 4//17
f 3//21 2//22 6//23
f 6//23 8//24 3//21
